<svg xmlns="http://www.w3.org/2000/svg" viewBox="0 0 28 28">
  <title>Asset 1</title>
  <g id="Layer_2" data-name="Layer 2">
    <g id="Layer_1-2" data-name="Layer 1">
      <path d="M.54,25.86l1.6,1.6a1.86,1.86,0,0,0,2.62,0l8.72-8.72a.73.73,0,0,1,1,0l8.72,8.72a1.86,1.86,0,0,0,2.62,0l1.6-1.6a1.86,1.86,0,0,0,0-2.62l-8.72-8.72a.73.73,0,0,1,0-1l8.72-8.72a1.86,1.86,0,0,0,0-2.62L25.86.54a1.86,1.86,0,0,0-2.62,0L14.51,9.26a.73.73,0,0,1-1,0L4.76.54a1.86,1.86,0,0,0-2.62,0L.54,2.14a1.86,1.86,0,0,0,0,2.62h0l8.72,8.72a.73.73,0,0,1,0,1L.54,23.24a1.85,1.85,0,0,0,0,2.61Z"/>
    </g>
  </g>
</svg>
